ply
format ascii 1.0
element vertex 624
property float x
property float y
property float z
end_header
0.071120239794254303 0.000613629992585629225 0.474328935146331787
0.0709376633167266846 0.000592815980780869722 0.458537966012954712
0.0832943618297576904 0.000584608002100139856 0.454125374555587769
0.0845066383481025696 0.000577518017962574959 0.448964387178421021
0.0870647504925727844 0.000579699000809341669 0.451015114784240723
0.0898982137441635132 0.000583502987865358591 0.454339742660522461
0.0959346368908882141 0.000607341004069894552 0.473289191722869873
0.0980036631226539612 0.000605461013037711382 0.472219377756118774
0.100024133920669556 0.000603318971116095781 0.470949798822402954
0.103803485631942749 0.000611579976975917816 0.477812707424163818
0.110108673572540283 0.00060613901587203145 0.474840492010116577
0.108131736516952515 0.000582393025979399681 0.456662744283676147
0.107297010719776154 0.000565615016967058182 0.443926632404327393
0.109447471797466278 0.000564886024221777916 0.443780809640884399
0.112114809453487396 0.000566740985959768295 0.445672810077667236
0.115124627947807312 0.000570158008486032486 0.44880405068397522
0.182384178042411804 0.000572460005059838295 0.46535104513168335
0.186220794916152954 0.000575434009078890085 0.46850857138633728
0.0731469541788101196 0.00284165306948125362 0.472819089889526367
0.0729195252060890198 0.00274837506003677845 0.45724862813949585
0.0846836864948272705 0.00270650396123528481 0.449904978275299072
0.0871590226888656616 0.0027165939100086689 0.451503455638885498
0.0899586379528045654 0.0027360040694475174 0.454644978046417236
0.0929873660206794739 0.00276124500669538975 0.458748757839202881
0.096984274685382843 0.00281334901228547096 0.467307358980178833
0.0995805487036705017 0.00282332790084183216 0.468860924243927002
0.101304568350315094 0.00280862394720315933 0.466309636831283569
0.101508602499961853 0.00275327288545668125 0.457006186246871948
0.101167589426040649 0.00268574501387774944 0.445680439472198486
0.102800093591213226 0.00267227296717464924 0.44332200288772583
0.109444119036197662 0.00267742597497999668 0.443766504526138306
0.112756311893463135 0.00270522991195321083 0.448222219944000244
0.118873372673988342 0.00279794097878038883 0.463417410850524902
0.185573264956474304 0.00294573488645255566 0.480246394872665405
0.178533270955085754 0.00279670208692550659 0.455523222684860229
0.181388393044471741 0.00280445092357695103 0.456348508596420288
0.0748702213168144226 0.00489178812131285667 0.455824464559555054
0.0767349526286125183 0.00487288413569331169 0.453960448503494263
0.0921781659126281738 0.00477837119251489639 0.444144368171691895
0.10741318017244339 0.00479459203779697418 0.444400250911712646
0.11055745929479599 0.00483868923038244247 0.448274224996566772
0.116670869290828705 0.00500850100070238113 0.463776051998138428
0.186410114169120789 0.00532364612445235252 0.482400238513946533
0.176498502492904663 0.00497564487159252167 0.450320392847061157
0.178034648299217224 0.00495503610000014305 0.447899848222732544
0.0795814841985702515 0.0074866018258035183 0.484498143196105957
0.0781697407364845276 0.00714763905853033066 0.462439388036727905
0.0785076245665550232 0.00698272604495286942 0.451644212007522583
0.103103779256343842 0.00690528610721230507 0.444613873958587646
0.109046436846256256 0.00701379217207431793 0.451145261526107788
0.116373322904109955 0.00733949290588498116 0.471842557191848755
0.176260337233543396 0.00717674195766448975 0.449692845344543457
0.182868897914886475 0.00735179707407951355 0.460041165351867676
0.185772284865379333 0.00737530505284667015 0.460877209901809692
0.197985708713531494 0.00776320416480302811 0.484435617923736572
0.0817733705043792725 0.00949536636471748352 0.470417261123657227
0.0812251865863800049 0.00918140355497598648 0.454720169305801392
0.0819158107042312622 0.00902002956718206406 0.446581125259399414
0.0957176610827445984 0.00892297271639108658 0.440560489892959595
0.0977553278207778931 0.00891728885471820831 0.440075337886810303
0.103849321603775024 0.00908301956951618195 0.44781157374382019
0.108781903982162476 0.00932237133383750916 0.45937114953994751
0.114920638501644135 0.00965350773185491562 0.47542881965637207
0.174067661166191101 0.010032367892563343 0.484457045793533325
0.176197484135627747 0.0100175943225622177 0.483156144618988037
0.176349908113479614 0.00989221129566431046 0.47651401162147522
0.17507539689540863 0.00944155454635620117 0.453019142150878906
0.174213990569114685 0.00915897078812122345 0.438239812850952148
0.178543940186500549 0.00926999561488628387 0.442915678024291992
0.199367925524711609 0.00997873116284608841 0.474648654460906982
0.202764376997947693 0.0100282737985253334 0.47626909613609314
0.205578714609146118 0.0100481137633323669 0.476463824510574341
0.208078309893608093 0.010052194818854332 0.475900828838348389
0.210305899381637573 0.0100431004539132118 0.474706888198852539
0.212746575474739075 0.0100441817194223404 0.473988354206085205
0.226364985108375549 0.0102214617654681206 0.479192048311233521
0.0726678222417831421 0.012054145336151123 0.484606236219406128
0.073720589280128479 0.0118551552295684814 0.476482301950454712
0.0758125931024551392 0.011830073781311512 0.475344479084014893
0.0777437686920166016 0.0117820035666227341 0.473277449607849121
0.0813017711043357849 0.0116499364376068115 0.467685222625732422
0.0815667435526847839 0.0113778728991746902 0.456613302230834961
0.0819050967693328857 0.0111297899857163429 0.446503788232803345
0.0830793008208274841 0.0110048679634928703 0.441333681344985962
0.0847152471542358398 0.0109456917271018028 0.43879583477973938
0.0865725204348564148 0.0109172109514474869 0.437482595443725586
0.0885019227862358093 0.0108988936990499496 0.436570048332214355
0.0905861705541610718 0.0108999889343976974 0.436427652835845947
0.092819802463054657 0.0109185557812452316 0.43697667121887207
0.0953021645545959473 0.0109648676589131355 0.438626855611801147
0.0975016504526138306 0.0109772877767682076 0.438911676406860352
0.0996361821889877319 0.0109819695353507996 0.438878268003463745
0.102500073611736298 0.0110651394352316856 0.441970765590667725
0.10669446736574173 0.0112856291234493256 0.450532615184783936
0.110957220196723938 0.0115044284611940384 0.459007561206817627
0.150614902377128601 0.011507687158882618 0.452512979507446289
0.153538972139358521 0.0115615129470825195 0.454136908054351807
0.155648991465568542 0.0115533070638775826 0.453308224678039551
0.157290235161781311 0.0115109533071517944 0.451127767562866211
0.159147739410400391 0.0114853065460920334 0.44959104061126709
0.161043062806129456 0.011462983675301075 0.448172479867935181
0.161400824785232544 0.011333223432302475 0.442546665668487549
0.163250640034675598 0.0113102179020643234 0.441083133220672607
0.16499754786491394 0.0112807098776102066 0.439354836940765381
0.166096985340118408 0.0112082017585635185 0.435943424701690674
0.16819724440574646 0.011204148642718792 0.43518531322479248
0.173572555184364319 0.0112724089995026588 0.436589211225509644
0.17429216206073761 0.011178925633430481 0.432331293821334839
0.176589354872703552 0.0111875971779227257 0.432017028331756592
0.179587692022323608 0.0112398620694875717 0.433371156454086304
0.182996287941932678 0.0113161643967032433 0.43563377857208252
0.186340689659118652 0.0113866543397307396 0.437653660774230957
0.188939899206161499 0.0114104114472866058 0.437862187623977661
0.191615357995033264 0.0114380856975913048 0.438209682703018188
0.193413272500038147 0.0114132557064294815 0.436538279056549072
0.195263683795928955 0.0113919675350189209 0.434999376535415649
0.198029518127441406 0.0114238783717155457 0.435486733913421631
0.200179770588874817 0.0114198783412575722 0.434600323438644409
0.20258234441280365 0.0114301154389977455 0.434254288673400879
0.210169792175292969 0.0117294071242213249 0.444870889186859131
0.228590115904808044 0.0126202506944537163 0.477850347757339478
0.0677001401782035828 0.0133592225611209869 0.451456636190414429
0.0679990574717521667 0.01300834771245718 0.439481049776077271
0.0696485042572021484 0.0129289217293262482 0.43667447566986084
0.0715410187840461731 0.0128978341817855835 0.435495764017105103
0.0735011026263237 0.012880273163318634 0.434768229722976685
0.0755700096487998962 0.0128821628168225288 0.43469122052192688
0.0775628164410591125 0.0128712709993124008 0.434176594018936157
0.0795080587267875671 0.0128531958907842636 0.43341335654258728
0.0815186351537704468 0.0128462724387645721 0.433019638061523438
0.0835484415292739868 0.0128425899893045425 0.432728290557861328
0.0853048115968704224 0.0127980057150125504 0.431052207946777344
0.0881437733769416809 0.0129140680655837059 0.434778451919555664
0.0901345163583755493 0.0129033317789435387 0.434226423501968384
0.0920912772417068481 0.0128882648423314095 0.433521240949630737
0.0940908566117286682 0.0128796575590968132 0.433025628328323364
0.0961867868900299072 0.0128842741250991821 0.432966113090515137
0.0981748774647712708 0.012874494306743145 0.432414382696151733
0.100082226097583771 0.0128546915948390961 0.431517630815505981
0.102142974734306335 0.0128549374639987946 0.431285232305526733
0.104850195348262787 0.0129348635673522949 0.433715313673019409
0.107124388217926025 0.0129592502489686012 0.434271454811096191
0.109354808926582336 0.0129774557426571846 0.434609651565551758
0.111532747745513916 0.0129888113588094711 0.434707850217819214
0.113682776689529419 0.0129964994266629219 0.434672445058822632
0.116230674088001251 0.013048514723777771 0.436107635498046875
0.118307977914810181 0.01304673682898283 0.435732901096343994
0.12016470730304718 0.0130210556089878082 0.434549480676651001
0.122235193848609924 0.0130189592018723488 0.434142380952835083
0.124610528349876404 0.0130487941205501556 0.434787958860397339
0.126682400703430176 0.01304632518440485 0.434344559907913208
0.128839045763015747 0.013052462600171566 0.434175580739974976
0.131440058350563049 0.0131026376038789749 0.435457676649093628
0.133068367838859558 0.0130557306110858917 0.43350064754486084
0.135753750801086426 0.0131123168393969536 0.434967041015625
0.13812825083732605 0.0131375370547175407 0.435377538204193115
0.140177696943283081 0.0131314834579825401 0.434737831354141235
0.142213538289070129 0.0131242815405130386 0.434047490358352661
0.145124390721321106 0.0131967952474951744 0.435977697372436523
0.147510066628456116 0.0132200801745057106 0.436264634132385254
0.149755403399467468 0.0132302315905690193 0.436103314161300659
0.152455136179924011 0.0132796084508299828 0.437218844890594482
0.154412180185317993 0.0132637498900294304 0.436171382665634155
0.156181201338768005 0.0132323252037167549 0.434600025415420532
0.158327579498291016 0.0132332127541303635 0.434077471494674683
0.160792991518974304 0.0132603123784065247 0.434399664402008057
0.163134515285491943 0.0132765443995594978 0.43435022234916687
0.165475964546203613 0.013292272575199604 0.434269338846206665
0.167912423610687256 0.0133150545880198479 0.434403657913208008
0.169980049133300781 0.0133083080872893333 0.433560758829116821
0.172066599130630493 0.013303111307322979 0.432756006717681885
0.174652919173240662 0.0133361285552382469 0.433180510997772217
0.176354512572288513 0.0133015243336558342 0.431396663188934326
0.178820893168449402 0.0133246667683124542 0.431474626064300537
0.181667044758796692 0.0133751342073082924 0.432422995567321777
0.183950617909431458 0.0133833978325128555 0.431993573904037476
0.186347320675849915 0.0133995180949568748 0.43180730938911438
0.189135417342185974 0.0134430015459656715 0.432491391897201538
0.191910088062286377 0.0134844677522778511 0.433098822832107544
0.194425910711288452 0.0135069265961647034 0.433086395263671875
0.196911096572875977 0.0135266939178109169 0.432980716228485107
0.199080541729927063 0.0135244876146316528 0.432167798280715942
0.201514855027198792 0.0135400397703051567 0.431920349597930908
0.205056935548782349 0.0136287976056337357 0.434003055095672607
0.0668078586459159851 0.0152841676026582718 0.445481181144714355
0.0677192658185958862 0.0150195416063070297 0.437647521495819092
0.0696575790643692017 0.0149915553629398346 0.43670576810836792
0.0715565234422683716 0.0149568906053900719 0.435564100742340088
0.0735092684626579285 0.0149350464344024658 0.434790134429931641
0.0755461230874061584 0.0149309560656547546 0.434527009725570679
0.0776095092296600342 0.0149321332573890686 0.434410572052001953
0.0795251801609992981 0.0149055048823356628 0.433479011058807373
0.0815516412258148193 0.0149004068225622177 0.433166742324829102
0.0836464837193489075 0.0149076879024505615 0.433207392692565918
0.0862499997019767761 0.0150030488148331642 0.435798943042755127
0.0880502089858055115 0.0149574242532253265 0.434287101030349731
0.0900472551584243774 0.0149465026333928108 0.43377569317817688
0.0920475572347640991 0.0149365449324250221 0.433284550905227661
0.094059377908706665 0.014928789809346199 0.432849258184432983
0.0962053090333938599 0.0149421412497758865 0.433017492294311523
0.0982944369316101074 0.0149462390691041946 0.432908475399017334
0.100285075604915619 0.0149354394525289536 0.432359129190444946
0.10251280665397644 0.0149596184492111206 0.432813018560409546
0.104812763631343842 0.0149931116029620171 0.433526068925857544
0.107170447707176208 0.0150333493947982788 0.434422969818115234
0.109515823423862457 0.0150703024119138718 0.435213714838027954
0.111738905310630798 0.0150893013924360275 0.435474812984466553
0.113888315856456757 0.0150977810844779015 0.435421198606491089
0.116226993501186371 0.0151305282488465309 0.436055898666381836
0.118406489491462708 0.0151417050510644913 0.436057150363922119
0.120463378727436066 0.0151370232924818993 0.435590296983718872
0.122605547308921814 0.0151429725810885429 0.435417890548706055
0.124652758240699768 0.0151371276006102562 0.434894740581512451
0.126680821180343628 0.0151291247457265854 0.434297949075698853
0.128859817981719971 0.0151390517130494118 0.434203743934631348
0.131372734904289246 0.0151871992275118828 0.435191929340362549
0.133673176169395447 0.0152095891535282135 0.43542751669883728
0.135818824172019958 0.0152138788253068924 0.43513152003288269
0.138026401400566101 0.0152248013764619827 0.435011774301528931
0.140390321612358093 0.0152523154392838478 0.435351788997650146
0.142424538731575012 0.0152436513453722 0.434645324945449829
0.144542783498764038 0.0152440387755632401 0.434183746576309204
0.147038429975509644 0.0152835715562105179 0.434822231531143188
0.149560108780860901 0.0153245795518159866 0.435486286878585815
0.151346087455749512 0.0152900395914912224 0.433989435434341431
0.153909862041473389 0.0153338741511106491 0.434702932834625244
0.155708730220794678 0.0153012741357088089 0.433235347270965576
0.158128306269645691 0.0153296533972024918 0.433480441570281982
0.160926192998886108 0.015393388457596302 0.43470802903175354
0.162648305296897888 0.0153538258746266365 0.433003842830657959
0.165298089385032654 0.0154016455635428429 0.433749943971633911
0.167558565735816956 0.0154123576357960701 0.433435171842575073
0.169646650552749634 0.0154070649296045303 0.43265688419342041
0.171681270003318787 0.0153970280662178993 0.431733042001724243
0.173979520797729492 0.0154105126857757568 0.431456059217453003
0.176408633589744568 0.0154350381344556808 0.431474477052688599
0.178603276610374451 0.0154386209324002266 0.430894732475280762
0.181329220533370972 0.0154874203726649284 0.43156355619430542
0.18371206521987915 0.0155060216784477234 0.431377947330474854
0.18612980842590332 0.0155270211398601532 0.431247889995574951
0.188635095953941345 0.0155546693131327629 0.431291848421096802
0.191270127892494202 0.0155921792611479759 0.431598931550979614
0.193962693214416504 0.0156333968043327332 0.431998997926712036
0.196406468749046326 0.0156537778675556183 0.431815862655639648
0.198650211095809937 0.0156578533351421356 0.431178838014602661
0.200964868068695068 0.0156672876328229904 0.430687278509140015
0.203698083758354187 0.0157087091356515884 0.43107333779335022
0.205984532833099365 0.0157150700688362122 0.430497854948043823
0.153013929724693298 0.0173455532640218735 0.432115286588668823
0.157428517937660217 0.017365526407957077 0.431503474712371826
0.159395202994346619 0.0173488147556781769 0.430513143539428711
0.161656126379966736 0.0173640735447406769 0.430302590131759644
0.164105191826820374 0.0173988025635480881 0.4305591881275177
0.166632980108261108 0.0174408145248889923 0.430979698896408081
0.168888479471206665 0.0174535438418388367 0.430661469697952271
0.171109363436698914 0.0174623429775238037 0.430232644081115723
0.176580622792243958 0.0175815615803003311 0.431831628084182739
0.178877159953117371 0.0175957046449184418 0.431491732597351074
0.180731788277626038 0.0175664778798818588 0.430077850818634033
0.183173015713691711 0.0175941959023475647 0.430048108100891113
0.186065152287483215 0.0176639948040246964 0.431033670902252197
0.188449844717979431 0.0176844801753759384 0.430803805589675903
0.19118887186050415 0.0177372898906469345 0.431351214647293091
0.193656116724014282 0.017763892188668251 0.431252062320709229
0.196175232529640198 0.0177945196628570557 0.43124350905418396
0.198388040065765381 0.017796909436583519 0.430546343326568604
0.200637772679328918 0.017802434042096138 0.429923534393310547
0.203736573457717896 0.017882276326417923 0.431092560291290283
0.206006184220314026 0.0178883280605077744 0.430481791496276855
0.216047585010528564 0.0185618828982114792 0.44591107964515686
0.152600288391113281 0.01939389668405056 0.430882036685943604
0.157350242137908936 0.0194595325738191605 0.431222110986709595
0.159445181488990784 0.0194567590951919556 0.430580705404281616
0.163997828960418701 0.019494321197271347 0.430208563804626465
0.16638629138469696 0.019525427371263504 0.43027198314666748
0.168622508645057678 0.0195380318909883499 0.42991301417350769
0.171975284814834595 0.0196779984980821609 0.432338565587997437
0.180933520197868347 0.0197185147553682327 0.430485129356384277
0.18311077356338501 0.0197211336344480515 0.42982909083366394
0.185972124338150024 0.0197964273393154144 0.43074488639831543
0.195568069815635681 0.0198919028043746948 0.429836302995681763
0.198346689343452454 0.0199524331837892532 0.430384427309036255
0.200831875205039978 0.0199823621660470963 0.430267930030822754
0.203828185796737671 0.0200618654489517212 0.431215524673461914
0.205996930599212646 0.0200589988380670547 0.43039277195930481
0.215515002608299255 0.0207641962915658951 0.444741100072860718
0.151965990662574768 0.0213997717946767807 0.429018288850784302
0.154804572463035583 0.0215024445205926895 0.430522024631500244
0.159587547183036804 0.0215784776955842972 0.430889368057250977
0.166223496198654175 0.0216146595776081085 0.429772943258285522
0.185848504304885864 0.0219230726361274719 0.43037647008895874
0.191033720970153809 0.0220227688550949097 0.430845797061920166
0.193150654435157776 0.0220165904611349106 0.429971784353256226
0.19593028724193573 0.0220851544290781021 0.430550962686538696
0.198656663298606873 0.0221461914479732513 0.430976003408432007
0.200862228870391846 0.0221483781933784485 0.43025285005569458
0.20305284857749939 0.0221488028764724731 0.429496198892593384
0.205939546227455139 0.0222242493182420731 0.430194854736328125
0.215000942349433899 0.0229573361575603485 0.443601161241531372
0.162111401557922363 0.0237422920763492584 0.431284159421920776
0.166139647364616394 0.0237109977751970291 0.429469555616378784
0.180725231766700745 0.0239556673914194107 0.429817736148834229
0.185828283429145813 0.0240602307021617889 0.430238813161849976
0.193377047777175903 0.0241943951696157455 0.430385023355484009
0.195449069142341614 0.0241819880902767181 0.429403424263000488
0.198040321469306946 0.0242333114147186279 0.429549545049667358
0.200264677405357361 0.0242390148341655731 0.428884387016296387
0.20335213840007782 0.0243478510528802872 0.430041640996932983
0.20538860559463501 0.0243297871202230453 0.428957730531692505
0.214945867657661438 0.0251935161650180817 0.443399906158447266
0.157111883163452148 0.0257282163947820663 0.430319607257843018
0.159375891089439392 0.0257528722286224365 0.430141538381576538
0.166080668568611145 0.0258090328425168991 0.429222047328948975
0.180906504392623901 0.0261117033660411835 0.430149585008621216
0.191260859370231628 0.0263538062572479248 0.431167066097259521
0.193316802382469177 0.0263381469994783401 0.430151611566543579
0.195492476224899292 0.0263388790190219879 0.429400175809860229
0.197560578584671021 0.0263251736760139465 0.428411215543746948
0.199980184435844421 0.0263580065220594406 0.428178310394287109
0.202848553657531738 0.0264485571533441544 0.428880751132965088
0.205293536186218262 0.0264824759215116501 0.428664803504943848
0.214930981397628784 0.0274336375296115875 0.443273425102233887
0.237723007798194885 0.030026409775018692 0.484314799308776855
0.147616028785705566 0.0276296474039554596 0.42937624454498291
0.152269139885902405 0.0277142208069562912 0.429607182741165161
0.154350519180297852 0.0277106482535600662 0.428989320993423462
0.166227772831916809 0.0279401838779449463 0.429498493671417236
0.184945404529571533 0.0282045602798461914 0.427987396717071533
0.195382058620452881 0.0284742694348096848 0.429050236940383911
0.197666645050048828 0.0284909941256046295 0.42853468656539917
0.200335219502449036 0.0285620130598545074 0.4288330078125
0.202981963753700256 0.0286283399909734726 0.429058611392974854
0.205828085541725159 0.0287209898233413696 0.429678171873092651
0.214584514498710632 0.0296276286244392395 0.442454814910888672
0.237658694386482239 0.0324715375900268555 0.484072387218475342
0.152225345373153687 0.0297961607575416565 0.4293784499168396
0.156748175621032715 0.029857538640499115 0.429116368293762207
0.15886823832988739 0.0298603232949972153 0.428562194108963013
0.166629225015640259 0.0301209967583417892 0.430423140525817871
0.170150741934776306 0.0299922917038202286 0.427269935607910156
0.184942930936813354 0.0303334146738052368 0.427864670753479004
0.20061783492565155 0.0307625234127044678 0.429323881864547729
0.203303039073944092 0.0308393891900777817 0.429624557495117188
0.205673530697822571 0.0308673009276390076 0.42924460768699646
0.214370891451835632 0.0318340770900249481 0.441902250051498413
0.2380170077085495 0.0349773988127708435 0.484681904315948486
0.149874433875083923 0.0318325832486152649 0.429098397493362427
0.154681682586669922 0.0319597423076629639 0.429688304662704468
0.158894062042236328 0.0319602005183696747 0.428514659404754639
0.192585930228233337 0.0326678119599819183 0.428176045417785645
0.194670200347900391 0.032655276358127594 0.427247345447540283
0.200664639472961426 0.0329303815960884094 0.429301559925079346
0.202876314520835876 0.0329358391463756561 0.428602039813995361
0.206539884209632874 0.0331742949783802032 0.430933147668838501
0.216173768043518066 0.0343565084040164948 0.445497453212738037
0.201692268252372742 0.0348921380937099457 0.425972431898117065
0.209245041012763977 0.0358142368495464325 0.436448127031326294
0.278093278408050537 0.0406727418303489685 0.484838515520095825
0.0642630010843276978 0.0360440798103809357 0.442071288824081421
0.177556872367858887 0.0365232117474079132 0.427342444658279419
0.179972171783447266 0.0365812554955482483 0.427301913499832153
0.18460160493850708 0.0366531014442443848 0.426672190427780151
0.187271356582641602 0.0367573462426662445 0.42713773250579834
0.189509853720664978 0.0367754511535167694 0.4265938401222229
0.191846296191215515 0.0368118509650230408 0.42625659704208374
0.194542467594146729 0.0369156114757061005 0.426693320274353027
0.196940839290618896 0.0369611270725727081 0.426452487707138062
0.199107527732849121 0.0369625501334667206 0.425702482461929321
0.201126962900161743 0.0369368046522140503 0.424642711877822876
0.207625240087509155 0.0377253256738185883 0.43293336033821106
0.241143777966499329 0.0424623340368270874 0.484740972518920898
0.277555763721466064 0.0430966876447200775 0.483853846788406372
0.120661631226539612 0.0374673642218112946 0.42764630913734436
0.129305452108383179 0.0375880412757396698 0.427419215440750122
0.131600990891456604 0.0376541763544082642 0.427737921476364136
0.133607193827629089 0.0376366861164569855 0.427093356847763062
0.135924547910690308 0.0377059690654277802 0.427419662475585938
0.138150051236152649 0.0377480052411556244 0.427422583103179932
0.140028208494186401 0.0376952141523361206 0.426338404417037964
0.142032116651535034 0.0376772470772266388 0.42563551664352417
0.144100368022918701 0.0376765429973602295 0.425114423036575317
0.146148651838302612 0.0376706384122371674 0.424520999193191528
0.148692488670349121 0.0377907715737819672 0.42533266544342041
0.150564700365066528 0.0377391614019870758 0.42419666051864624
0.153296202421188354 0.0379013381898403168 0.425448358058929443
0.156013891100883484 0.0380557142198085785 0.426594018936157227
0.158330380916595459 0.0381093472242355347 0.426593422889709473
0.160605549812316895 0.0381516888737678528 0.426451414823532104
0.162784203886985779 0.0381702147424221039 0.426028937101364136
0.164613917469978333 0.0381074175238609314 0.4246864914894104
0.166894152760505676 0.0381490960717201233 0.424495965242385864
0.169098496437072754 0.0381725169718265533 0.424088954925537109
0.171847566962242126 0.0383167341351509094 0.425009161233901978
0.174170196056365967 0.038363434374332428 0.424832999706268311
0.176158234477043152 0.0383361205458641052 0.4238261878490448
0.178802847862243652 0.0384505577385425568 0.424374997615814209
0.180828377604484558 0.0384306423366069794 0.423430204391479492
0.183936759829521179 0.038638584315776825 0.424984276294708252
0.185937151312828064 0.0386115796864032745 0.423943907022476196
0.187968164682388306 0.038591388612985611 0.422973543405532837
0.190439388155937195 0.0386609174311161041 0.422981351613998413
0.192740604281425476 0.0386946946382522583 0.422593235969543457
0.19665759801864624 0.0390484631061553955 0.425691217184066772
0.197718605399131775 0.0388335324823856354 0.422587662935256958
0.199850648641586304 0.0388312265276908875 0.421805202960968018
0.202673092484474182 0.038961607962846756 0.422466576099395752
0.205434679985046387 0.0390775762498378754 0.422974646091461182
0.211188048124313354 0.0397542379796504974 0.429546594619750977
0.269775897264480591 0.045564558357000351 0.484609723091125488
0.275457620620727539 0.0456700064241886139 0.484889388084411621
0.275715082883834839 0.0452967993915081024 0.480596423149108887
0.0641658157110214233 0.0401553995907306671 0.441247016191482544
0.0847708955407142639 0.0390771031379699707 0.427580296993255615
0.0953938961029052734 0.0392699167132377625 0.428553640842437744
0.103940524160861969 0.0394139885902404785 0.429049193859100342
0.111573681235313416 0.0392149314284324646 0.425650179386138916
0.115348577499389648 0.0391114018857479095 0.4238472580909729
0.117621995508670807 0.0391908399760723114 0.424350917339324951
0.119663745164871216 0.0391916185617446899 0.423990458250045776
0.127166569232940674 0.0396226309239864349 0.427461981773376465
0.128332138061523438 0.0393475517630577087 0.42407536506652832
0.130711302161216736 0.039447292685508728 0.424717515707015991
0.132844597101211548 0.0394708253443241119 0.42452511191368103
0.139604255557060242 0.0396389663219451904 0.424911230802536011
0.141625970602035522 0.0396268256008625031 0.424280464649200439
0.143450260162353516 0.0395605117082595825 0.423057198524475098
0.145554661750793457 0.0395721495151519775 0.422654569149017334
0.147966861724853516 0.039665907621383667 0.42311406135559082
0.150249376893043518 0.0397227145731449127 0.423163652420043945
0.153070345520973206 0.0399183034896850586 0.424674570560455322
0.155026242136955261 0.0398860126733779907 0.423745214939117432
0.157058566808700562 0.0398738831281661987 0.423017144203186035
0.160184040665626526 0.0401359014213085175 0.425180286169052124
0.161767721176147461 0.0400097407400608063 0.423216164112091064
0.164231643080711365 0.0401016473770141602 0.423546344041824341
0.166196748614311218 0.0400708951056003571 0.422567307949066162
0.168258190155029297 0.0400637537240982056 0.421825885772705078
0.170663937926292419 0.0401376783847808838 0.421925157308578491
0.173334136605262756 0.0402711629867553711 0.422636032104492188
0.17561456561088562 0.0403118878602981567 0.422359853982925415
0.177779018878936768 0.0403252579271793365 0.42178654670715332
0.18033173680305481 0.0404252558946609497 0.422108441591262817
0.182898089289665222 0.0405258797109127045 0.42242547869682312
0.185216218233108521 0.0405697263777256012 0.422141432762145996
0.187427490949630737 0.0405893623828887939 0.421598821878433228
0.189756482839584351 0.0406336672604084015 0.421307504177093506
0.192505836486816406 0.0407659225165843964 0.421922177076339722
0.194849342107772827 0.0408101864159107208 0.421622395515441895
0.196721985936164856 0.0407558456063270569 0.420305252075195312
0.199588343501091003 0.0409062430262565613 0.42110106348991394
0.202331572771072388 0.0410284027457237244 0.421606719493865967
0.204702958464622498 0.0410732850432395935 0.421323269605636597
0.207409262657165527 0.0411836616694927216 0.42171931266784668
0.217470020055770874 0.0427369587123394012 0.436874836683273315
0.245715126395225525 0.047313544899225235 0.482056766748428345
0.258185803890228271 0.0477857738733291626 0.483970463275909424
0.26054874062538147 0.0477596037089824677 0.48307308554649353
0.267022103071212769 0.048022828996181488 0.484599798917770386
0.268088638782501221 0.047764018177986145 0.481497615575790405
0.270298242568969727 0.0477117002010345459 0.480533719062805176
0.274125903844833374 0.0479432791471481323 0.482484251260757446
0.274993568658828735 0.0476576350629329681 0.479288995265960693
0.0626628026366233826 0.0426342152059078217 0.445429861545562744
0.106920167803764343 0.0410295873880386353 0.423895478248596191
0.108876027166843414 0.0410022027790546417 0.423299103975296021
0.11076066642999649 0.0409494116902351379 0.422430217266082764
0.119590535759925842 0.0412004664540290833 0.423604816198348999
0.121500849723815918 0.0411571450531482697 0.422776967287063599
0.123507238924503326 0.0411471836268901825 0.422280222177505493
0.125829696655273438 0.0412410721182823181 0.4228363037109375
0.128113076090812683 0.0413192920386791229 0.423217445611953735
0.130486056208610535 0.0414234176278114319 0.423849552869796753
0.136423900723457336 0.04135856032371521 0.421807169914245605
0.143274560570716858 0.0415634401142597198 0.422391653060913086
0.145351245999336243 0.0415685549378395081 0.421914935111999512
0.147886469960212708 0.0417027510702610016 0.422733008861541748
0.150154903531074524 0.0417589694261550903 0.422744631767272949
0.152499064803123474 0.0418343581259250641 0.422934919595718384
0.154837325215339661 0.0419060401618480682 0.423072218894958496
0.156832471489906311 0.0418841131031513214 0.42225039005279541
0.158863559365272522 0.0418721586465835571 0.421516269445419312
0.163681134581565857 0.0420429296791553497 0.421964406967163086
0.165916457772254944 0.0420809686183929443 0.421691328287124634
0.177273079752922058 0.0422993600368499756 0.420419394969940186
0.188449501991271973 0.0424506030976772308 0.418241381645202637
0.190638914704322815 0.0424683503806591034 0.417667657136917114
0.193770065903663635 0.042693115770816803 0.419125199317932129
0.195777550339698792 0.042668025940656662 0.418128013610839844
0.198051556944847107 0.0427008457481861115 0.417701810598373413
0.200633779168128967 0.0427986308932304382 0.417914777994155884
0.203300878405570984 0.0429121889173984528 0.41828647255897522
0.206374809145927429 0.0431082844734191895 0.41946825385093689
0.20882803201675415 0.0431719310581684113 0.419370681047439575
0.214568153023719788 0.0439067967236042023 0.425796806812286377
0.243499308824539185 0.0493244491517543793 0.477557897567749023
0.249091222882270813 0.0499533191323280334 0.482884854078292847
0.251599758863449097 0.0499574318528175354 0.482192635536193848
0.26865050196647644 0.0498875416815280914 0.477531760931015015
0.271135151386260986 0.0498870350420475006 0.477158665657043457
0.181434005498886108 0.0443785935640335083 0.418702811002731323
0.183406129479408264 0.0443476289510726929 0.417676329612731934
0.185607090592384338 0.0443719886243343353 0.41716611385345459
0.187830612063407898 0.0444010458886623383 0.416695892810821533
0.190597042441368103 0.0445562824606895447 0.41740494966506958
0.193262189626693726 0.0446846149861812592 0.417857348918914795
0.195748135447502136 0.0447690896689891815 0.417897969484329224
0.198004260659217834 0.0447996631264686584 0.417437732219696045
0.200608700513839722 0.0449074730277061462 0.417701184749603271
0.202817186713218689 0.0449252277612686157 0.41713365912437439
0.2054949551820755 0.0450453907251358032 0.417526096105575562
0.210121497511863708 0.0455857850611209869 0.421817541122436523
0.0621892772614955902 0.0498315393924713135 0.47396281361579895
0.135266110301017761 0.0450549423694610596 0.417923420667648315
0.137972593307495117 0.0452768914401531219 0.419493257999420166
0.140305310487747192 0.0453714393079280853 0.419865936040878296
0.142277359962463379 0.0453482307493686676 0.419134825468063354
0.144440904259681702 0.0453857742249965668 0.418951630592346191
0.147311896085739136 0.0456413812935352325 0.420764565467834473
0.149055302143096924 0.0455453097820281982 0.419320046901702881
0.150824069976806641 0.0454594194889068604 0.417958199977874756
0.152760744094848633 0.0454256795346736908 0.417064040899276733
0.155158162117004395 0.0455279499292373657 0.417404651641845703
0.157380223274230957 0.0455766730010509491 0.417239487171173096
0.159647509455680847 0.0456369891762733459 0.417166352272033691
0.162196964025497437 0.0457753241062164307 0.417791098356246948
0.165366202592849731 0.0460827983915805817 0.41994127631187439
0.167071133852005005 0.0459795631468296051 0.418334215879440308
0.169032573699951172 0.0459484979510307312 0.417374640703201294
0.171268105506896973 0.0459917075932025909 0.417079031467437744
0.173749327659606934 0.0460989773273468018 0.41735231876373291
0.177761703729629517 0.0466050468385219574 0.421217769384384155
0.179914176464080811 0.0466172695159912109 0.420603722333908081
0.181876257061958313 0.0465803481638431549 0.419539660215377808
0.185109987854957581 0.0468661338090896606 0.421372443437576294
0.186180353164672852 0.0466038435697555542 0.418272614479064941
0.188786789774894714 0.0467275306582450867 0.418636083602905273
0.193401500582695007 0.0473399609327316284 0.423365235328674316
0.195132732391357422 0.047240816056728363 0.421722859144210815
0.199111863970756531 0.0476820394396781921 0.424901336431503296
0.200605005025863647 0.0475247688591480255 0.422746628522872925
0.204639941453933716 0.0479665249586105347 0.425922930240631104
0.208491146564483643 0.0483562983572483063 0.428634047508239746
0.211314678192138672 0.048502013087272644 0.429185837507247925
0.216038286685943604 0.049076274037361145 0.433533906936645508
0.221165776252746582 0.049729570746421814 0.438580304384231567
0.059240248054265976 0.0478753559291362762 0.435579538345336914
0.0755533277988433838 0.0465103313326835632 0.421815931797027588
0.0774807184934616089 0.046466335654258728 0.421233981847763062
0.0793959051370620728 0.0464173443615436554 0.420599699020385742
0.085337422788143158 0.0463902615010738373 0.41973760724067688
0.0892206355929374695 0.0463334992527961731 0.418772697448730469
0.0912769213318824768 0.0463651306927204132 0.418819904327392578
0.0935845598578453064 0.0465202853083610535 0.419972985982894897
0.0958841443061828613 0.0466649606823921204 0.421020716428756714
0.0979577675461769104 0.0466959066689014435 0.42103201150894165
0.0997856184840202332 0.046610753983259201 0.419987261295318604
0.101529926061630249 0.0464906208217144012 0.418618857860565186
0.103469207882881165 0.0464626215398311615 0.418070882558822632
0.106364749372005463 0.0468568801879882812 0.421309798955917358
0.108151212334632874 0.0467569045722484589 0.420092403888702393
0.110089056193828583 0.046724759042263031 0.419474601745605469
0.112318716943264008 0.046815335750579834 0.419947296380996704
0.114694081246852875 0.0469623096287250519 0.420912951231002808
0.117050237953662872 0.0470963791012763977 0.421749353408813477
0.119130901992321014 0.0471168532967567444 0.421555787324905396
0.121206901967525482 0.0471347570419311523 0.421327054500579834
0.123340584337711334 0.0471740588545799255 0.421277105808258057
0.125448912382125854 0.047202475368976593 0.421117126941680908
0.128402292728424072 0.0475428067147731781 0.423724144697189331
0.130111739039421082 0.0474190115928649902 0.422180056571960449
0.131894141435623169 0.0473251640796661377 0.420891910791397095
0.134157583117485046 0.0474040620028972626 0.421127289533615112
0.136747211217880249 0.0475940443575382233 0.422333776950836182
0.138820379972457886 0.0476012453436851501 0.421903163194656372
0.141280382871627808 0.0477388612926006317 0.422613620758056641
0.143191799521446228 0.0476897545158863068 0.421656757593154907
0.14591546356678009 0.0479086264967918396 0.423053920269012451
0.147919058799743652 0.047888193279504776 0.422322332859039307
0.149767473340034485 0.0478186942636966705 0.42114555835723877
0.152337044477462769 0.047978132963180542 0.421970665454864502
0.154848963022232056 0.0481152944266796112 0.422582924365997314
0.158511176705360413 0.0486014336347579956 0.426239162683486938
0.160514995455741882 0.0485729500651359558 0.425363272428512573
0.162595510482788086 0.0485680252313613892 0.424681276082992554
0.164670184254646301 0.0485614091157913208 0.423972159624099731
0.168040186166763306 0.0489320717751979828 0.426539868116378784
0.16983070969581604 0.0488392114639282227 0.425051629543304443
0.171667426824569702 0.0487616583704948425 0.42368781566619873
0.174363702535629272 0.0489270910620689392 0.42442360520362854
0.176643714308738708 0.0489730760455131531 0.424110472202301025
0.179451912641525269 0.0491625703871250153 0.425027787685394287
0.181880757212638855 0.0492448285222053528 0.425006121397018433
0.184786885976791382 0.0494528226554393768 0.426058471202850342
0.187169358134269714 0.0495174229145050049 0.425865650177001953
0.189187198877334595 0.0494850948452949524 0.424834579229354858
0.191688045859336853 0.0495783202350139618 0.424877673387527466
0.193743109703063965 0.0495553687214851379 0.423923224210739136
0.196841493248939514 0.0497967638075351715 0.425227582454681396
0.199238330125808716 0.0498572811484336853 0.424985706806182861
0.201905205845832825 0.0499832630157470703 0.425304144620895386
0.0675951763987541199 0.0500206351280212402 0.435695499181747437
0.06952676922082901 0.0499265938997268677 0.434721559286117554
0.0715128257870674133 0.0498758889734745026 0.434118568897247314
0.0733917355537414551 0.0497552938759326935 0.432901084423065186
0.0752617865800857544 0.0496353469789028168 0.431682884693145752
0.0773027688264846802 0.0496314316987991333 0.431466996669769287
0.0794576108455657959 0.0496988706290721893 0.431863754987716675
0.0816910415887832642 0.0498107597231864929 0.432638406753540039
0.0838893279433250427 0.04989619180560112 0.433174550533294678
0.0857346728444099426 0.0497725643217563629 0.43188786506652832
0.0875956937670707703 0.0496635325253009796 0.430720478296279907
0.0895653963088989258 0.049619629979133606 0.430110156536102295
0.0916519761085510254 0.0496409237384796143 0.43005642294883728
0.0939179956912994385 0.0497562773525714874 0.43080785870552063
0.09577961266040802 0.0496569685637950897 0.429691582918167114
0.0977519750595092773 0.049617961049079895 0.429088354110717773
0.100458718836307526 0.0499456077814102173 0.431644707918167114
0.102654315531253815 0.050010979175567627 0.431922376155853271
0.104617908596992493 0.0499629117548465729 0.431210070848464966
0.106386579573154449 0.0498253367841243744 0.429716140031814575
0.108617939054965973 0.0499054938554763794 0.430089831352233887
0.111091330647468567 0.0500917360186576843 0.431365311145782471
0.11725519597530365 0.0500741042196750641 0.430158078670501709
0.119345113635063171 0.050083305686712265 0.429862171411514282
